<svg width="141" height="12" viewBox="0 0 141 12" fill="none" xmlns="http://www.w3.org/2000/svg">
<path d="M4.68838 11.4976C3.78716 11.2625 2.94506 10.8417 2.21609 10.262C1.48711 9.68236 0.887327 8.95668 0.455344 8.13157C0.0833043 7.4154 -0.0654365 6.60412 0.0283425 5.80256C-0.0675983 5.00544 0.0813357 4.19801 0.455344 3.48757C1.09741 2.33251 2.06673 1.3931 3.24136 0.787558C4.67236 0.117558 5.72337 -0.00342894 10.4284 0.0415711C13.7174 0.0725711 14.7984 0.132568 14.7984 0.269568C14.5021 0.830033 14.1446 1.35591 13.7324 1.83756L12.6824 3.20856H9.6224C5.9834 3.20856 5.29836 3.34556 4.47536 4.25956C4.21163 4.53575 4.01699 4.87041 3.90731 5.23621C3.79763 5.60201 3.776 5.98857 3.84426 6.36431C3.91252 6.74005 4.06873 7.0943 4.30007 7.39814C4.53141 7.70198 4.83134 7.9468 5.17538 8.11257C5.78438 8.44757 6.01236 8.46256 10.3064 8.53856C13.6714 8.59956 14.7984 8.65957 14.7984 8.79757C14.5017 9.35778 14.1442 9.88361 13.7324 10.3656L12.6814 11.7356L9.08736 11.7206C7.61726 11.7994 6.14297 11.7247 4.68838 11.4976Z" fill="white"/>
<path d="M22.138 11.6332C22.037 10.9938 22.0014 10.3458 22.032 9.69918V7.84119L18.682 4.12618C17.4979 2.88076 16.3798 1.57431 15.332 0.212181C15.332 0.0601809 15.819 0.0121839 17.601 0.0121839H19.87L21.957 2.29618L24.027 4.58019L25.961 2.29618L27.895 0.0121839H30.133C30.9123 -0.0262891 31.6936 0.0196534 32.463 0.149193C31.478 1.50875 30.4093 2.80559 29.263 4.03219L25.99 7.76218V9.51319C26.0059 10.1745 25.9755 10.8361 25.899 11.4932C25.823 11.6932 25.499 11.7362 24.026 11.7362C23.3948 11.7676 22.762 11.7331 22.138 11.6332Z" fill="white"/>
<path d="M32.4771 11.4968C32.3553 9.63211 32.3553 7.76147 32.4771 5.89679C32.5531 5.68379 33.162 5.65279 37.7 5.65279C42.527 5.65279 42.846 5.63778 43.319 5.35278C43.4729 5.29305 43.6034 5.18529 43.6911 5.04549C43.7788 4.90569 43.8192 4.74132 43.806 4.5768C43.8421 4.31829 43.7832 4.05546 43.6404 3.83702C43.4975 3.61858 43.2803 3.45934 43.0291 3.38879C41.2075 3.21635 39.3767 3.16057 37.548 3.22179C35.8767 3.31089 34.2009 3.26005 32.538 3.06979C32.8733 2.49342 33.2664 1.95264 33.7111 1.4558L34.868 0.00878906L39.299 0.0547943C43.487 0.0997943 43.7761 0.130788 44.5991 0.454788C46.8991 1.38379 48.099 3.31679 47.614 5.34279C47.3476 6.39117 46.6805 7.29316 45.756 7.8548C44.446 8.7228 43.6091 8.85979 39.7421 8.85979H36.3621L36.316 10.2758L36.27 11.6758L34.428 11.7208C32.842 11.7398 32.5501 11.7088 32.4771 11.4968Z" fill="white"/>
<path d="M48.45 11.5418C48.404 11.4508 48.3891 8.8168 48.4041 5.7258L48.45 0.0917969H52.105L52.181 2.1478L52.257 4.2038L55.4091 4.2498L58.561 4.28079L58.606 2.1938L58.6511 0.0937958H62.3101V11.6668L60.452 11.7118L58.579 11.7578V7.47879H52.179V11.7418H50.3521C49.0101 11.7398 48.496 11.6948 48.45 11.5418Z" fill="white"/>
<path d="M63.3729 11.5418C63.3269 11.4508 63.3119 8.81677 63.3269 5.72577L63.3729 0.0917706L69.4489 0.0467724C73.0729 0.0317724 75.6009 0.0777671 75.6759 0.153767C75.7679 0.244767 75.4019 0.838767 74.7169 1.72277L73.6169 3.13877L70.4039 3.21477L67.1759 3.29076V4.20476L71.1759 4.25077C73.9629 4.28177 75.1659 4.34176 75.1659 4.45076C74.8573 5.0173 74.4953 5.55307 74.0849 6.05077L72.9849 7.48177H67.0919V8.54776H71.3399C72.7933 8.48485 74.2494 8.53568 75.6949 8.69977C75.4387 9.28212 75.0947 9.82171 74.6749 10.2998L73.5639 11.7468H68.4939C64.5899 11.7398 63.4179 11.6938 63.3729 11.5418Z" fill="white"/>
<path d="M75.9953 11.5418C75.9653 11.4348 75.9493 10.0798 75.9653 8.54178L76.0103 5.72478L81.5223 5.64879C86.8223 5.57279 87.0493 5.55678 87.4603 5.24878C87.5971 5.15955 87.7095 5.0376 87.7873 4.89398C87.8651 4.75036 87.9058 4.58962 87.9058 4.42628C87.9058 4.26295 87.8651 4.10219 87.7873 3.95857C87.7095 3.81495 87.5971 3.69302 87.4603 3.60379C87.0493 3.30379 86.8523 3.28378 81.5523 3.23878C76.9083 3.19278 76.0713 3.16278 76.1163 2.97978C76.4416 2.4163 76.8136 1.8811 77.2283 1.37979L78.2793 0.00878906H82.4793C87.0163 0.00878906 88.0983 0.145781 89.4223 0.815781C90.3072 1.24515 91.0284 1.95063 91.4773 2.82579C91.8214 3.80253 91.848 4.86303 91.5533 5.85579C91.135 6.66865 90.5152 7.36067 89.7533 7.86578C89.5253 7.98678 89.3273 8.15479 89.3273 8.23079C89.8933 8.83427 90.504 9.39418 91.1543 9.90578C91.8114 10.4151 92.423 10.9806 92.9823 11.5958C92.1167 11.7383 91.238 11.7843 90.3623 11.7328H87.7343L86.0343 10.2858L84.3283 8.82378L82.0753 8.86978L79.8213 8.91579L79.7753 10.3318L79.7303 11.7318H77.9023C76.5593 11.7398 76.0563 11.6948 75.9953 11.5418Z" fill="white"/>
<path d="M98.5155 11.5122C97.2736 11.1852 96.1461 10.5214 95.2575 9.59418C94.7391 9.11335 94.3326 8.52448 94.0668 7.86923C93.801 7.21397 93.6825 6.50833 93.7195 5.80219C93.6818 4.9178 93.8789 4.03919 94.2908 3.25565C94.7027 2.47212 95.3147 1.81159 96.0645 1.34119C97.5715 0.306195 98.3175 0.123188 101.699 0.0471881C105.141 -0.0288119 106.328 0.123184 107.699 0.777184C108.54 1.13052 109.279 1.68927 109.848 2.40224C110.418 3.11522 110.799 3.95964 110.958 4.85819C111.537 7.81219 109.497 10.6302 106.131 11.5122C103.601 11.817 101.045 11.817 98.5155 11.5122ZM105.201 8.39019C105.924 8.1532 106.536 7.66036 106.922 7.00419C107.074 6.63223 107.152 6.23407 107.151 5.83219C107.156 5.3777 107.03 4.93135 106.786 4.54749C106.543 4.16364 106.193 3.85883 105.78 3.67019C105.126 3.30419 104.988 3.28919 102.355 3.28919C99.6435 3.28919 99.5975 3.28919 98.9125 3.70019C98.5469 3.87292 98.2325 4.1378 98.0002 4.46882C97.7678 4.79983 97.6256 5.18559 97.5875 5.58819C97.5085 6.17034 97.6378 6.76169 97.9525 7.25776C98.2672 7.75383 98.7472 8.12269 99.3075 8.29919C101.259 8.58972 103.241 8.62032 105.201 8.39019Z" fill="white"/>
<path d="M115.993 11.4967C115.092 11.2618 114.25 10.8409 113.521 10.2612C112.792 9.68157 112.192 8.95587 111.76 8.13072C111.388 7.41448 111.239 6.60327 111.333 5.80171C111.237 5.0046 111.386 4.19721 111.76 3.48671C112.402 2.33165 113.371 1.39226 114.546 0.786713C116.054 0.0717127 116.891 0.0107104 123.622 0.0407104L129.911 0.0857086L129.956 1.86671C129.947 2.46855 129.982 3.07024 130.063 3.66672C130.108 3.66672 131.25 2.84371 132.636 1.83871L135.136 0.0117188H137.736C139.716 0.0117188 140.336 0.0577157 140.336 0.211716C139.143 1.24508 137.898 2.21604 136.605 3.12071C134.549 4.61371 132.844 5.87671 132.813 5.93771C132.782 5.99871 134.473 7.23271 136.574 8.69371C138.674 10.1707 140.411 11.4497 140.456 11.5557C140.502 11.6927 139.878 11.7387 137.792 11.7387H135.093L132.626 9.98772C131.271 9.02872 130.126 8.23671 130.083 8.23671C129.984 8.8048 129.944 9.38141 129.961 9.95772L129.915 11.6627L128.103 11.7077C126.748 11.7387 126.261 11.6927 126.154 11.5557C126.055 11.1217 126.015 10.6765 126.033 10.2317V9.08871L125.013 10.4127L123.978 11.7377L120.399 11.7227C118.926 11.8009 117.45 11.7252 115.993 11.4967ZM126.028 4.55272V0.563721L125.008 1.88771L123.973 3.21271H120.912C117.44 3.21271 116.712 3.34971 115.872 4.15671C115.575 4.46588 115.346 4.83468 115.202 5.23871C115.078 5.71338 115.092 6.21365 115.243 6.6804C115.395 7.14716 115.676 7.56088 116.055 7.87271C116.969 8.46671 117.455 8.52671 121.811 8.54271H126.029V4.55272H126.028Z" fill="white"/>
</svg>
